<svg width="52" height="52" viewBox="0 0 52 52" fill="none" xmlns="http://www.w3.org/2000/svg">
<path d="M28.4032 20.2307L28.5168 20.5735H28.8779H30.9468L29.2816 21.7596L28.9809 21.9737L29.097 22.3241L29.7384 24.2593L28.0454 23.0534L27.7553 22.8467L27.4652 23.0534L25.7722 24.2593L26.4135 22.3241L26.5297 21.9737L26.229 21.7596L24.5638 20.5735H26.6327H26.9937L27.1073 20.2307L27.7553 18.2756L28.4032 20.2307Z" stroke="#009EE3"/>
<path d="M27.7839 11.6855C27.8803 11.5198 28.1196 11.5198 28.216 11.6855L29.386 13.6954C29.8346 14.4661 30.7909 14.7762 31.6064 14.4154L33.764 13.4609C33.9405 13.3828 34.1351 13.5257 34.1136 13.7174L33.8613 15.9619L34.6066 16.0457L33.8613 15.9619C33.7601 16.8627 34.3635 17.6917 35.2518 17.8723L37.5183 18.333C37.7095 18.3719 37.7845 18.605 37.6518 18.748L36.1211 20.398C35.4983 21.0693 35.4983 22.1071 36.1211 22.7784L37.6518 24.4284C37.7845 24.5714 37.7095 24.8045 37.5183 24.8434L35.2518 25.3041C34.3635 25.4846 33.7601 26.3136 33.8613 27.2144L34.1136 29.459C34.1351 29.6507 33.9405 29.7936 33.764 29.7155L31.6064 28.761C30.7909 28.4002 29.8346 28.7103 29.386 29.481L28.216 31.4909C28.1196 31.6565 27.8803 31.6565 27.7839 31.4909L26.6139 29.481C26.1653 28.7103 25.209 28.4002 24.3935 28.761L22.2359 29.7155C22.0594 29.7936 21.8648 29.6507 21.8863 29.459L22.1386 27.2144C22.2398 26.3136 21.6364 25.4846 20.7481 25.3041L18.4816 24.8434C18.2904 24.8045 18.2154 24.5714 18.3481 24.4284L19.8788 22.7784C20.5016 22.1071 20.5016 21.0693 19.8788 20.398L18.3481 18.748C18.2154 18.605 18.2904 18.3719 18.4816 18.333L20.7481 17.8723C21.6364 17.6917 22.2398 16.8627 22.1386 15.9619L21.8863 13.7174C21.8648 13.5257 22.0594 13.3828 22.2359 13.4609L24.3935 14.4154C25.209 14.7762 26.1653 14.4661 26.6139 13.6954L27.7839 11.6855Z" stroke="#009EE3" stroke-width="1.5"/>
<path d="M22.5 28.4512L19.6465 35.457L22 35.3137L23.6193 36.9943L26.5564 29.6989" stroke="#009EE3" stroke-width="1.5" stroke-linejoin="round"/>
<path d="M33.484 28.4671L36.7082 35.3166L34.3503 35.2945L32.8231 37.056L29.0999 29.4314" stroke="#009EE3" stroke-width="1.5" stroke-linejoin="round"/>
<path d="M9 8.84306H1V4.67674C1.00012 -0.225204 8.99994 -0.225322 9 4.67674V8.84306ZM9 8.84306V47.3135C9 52.2155 17 52.2155 17 47.3136V44.1373H48M48 44.1373H51V48.0588C51 49.5294 49.4 51 47 51H13M48 44.1373V3.94121C48 2.47059 46.5 1 44 1H5" stroke="#009EE3" stroke-width="2" stroke-linejoin="round"/>
</svg>
